HIERARCHY
ROOT pelvis
{
	OFFSET 0.000000 0.000000 0.000000
	CHANNELS 6 Xposition Yposition Zposition Zrotation Xrotation Yrotation
	JOINT lfemur
	{
		OFFSET 11.446000 0.000000 0.000000
		CHANNELS 3 Zrotation Xrotation Yrotation
		JOINT ltibia
		{
			OFFSET 0.000000 -42.030400 0.000000
			CHANNELS 3 Zrotation Xrotation Yrotation
			JOINT lfoot
			{
				OFFSET 0.000000 -39.930200 0.000000
				CHANNELS 3 Zrotation Xrotation Yrotation
				JOINT ltoes
				{
					OFFSET 0.000000 0.000000 11.775800
					CHANNELS 3 Zrotation Xrotation Yrotation
					End Site
					{
					    OFFSET 0.000000 0.000000 5.000000
					}
				}
			}
		}
	}
	JOINT rfemur
	{
		OFFSET -11.446000 0.000000 0.000000
		CHANNELS 3 Zrotation Xrotation Yrotation
		JOINT rtibia
		{
			OFFSET 0.000000 -42.030400 0.000000
			CHANNELS 3 Zrotation Xrotation Yrotation
			JOINT rfoot
			{
				OFFSET 0.000000 -39.930200 0.000000
				CHANNELS 3 Zrotation Xrotation Yrotation
				JOINT rtoes
				{
					OFFSET 0.000000 0.000000 11.775800
					CHANNELS 3 Zrotation Xrotation Yrotation
					End Site
					{
					    OFFSET 0.000000 0.000000 5.000000
					}
				}
			}
		}
	}
	JOINT thorax
	{
		OFFSET 0.000000 11.255600 -5.000000
		CHANNELS 3 Zrotation Xrotation Yrotation
		JOINT head
		{
			OFFSET 0.000000 43.799300 0.000000
			CHANNELS 3 Zrotation Xrotation Yrotation
			End Site
			{
			    OFFSET 0.000000 5.000000 0.000000
			}
		}
		JOINT lclavicle
		{
			OFFSET 0.000000 39.863000 0.000000
			CHANNELS 3 Zrotation Xrotation Yrotation
			JOINT lhumerus
			{
				OFFSET 17.380600 4.958300 0.000000
				CHANNELS 3 Zrotation Xrotation Yrotation
				JOINT lradius
				{
					OFFSET 0.000000 -27.561300 0.000000
					CHANNELS 3 Zrotation Xrotation Yrotation
					JOINT lhand
					{
						OFFSET 0.000000 -26.933000 0.000000
						CHANNELS 3 Zrotation Xrotation Yrotation
						End Site
						{
						    OFFSET 0.000000 -5.000000 0.000000
						}
					}
				}
			}
		}
		JOINT rclavicle
		{
			OFFSET 0.000000 39.863000 0.000000
			CHANNELS 3 Zrotation Xrotation Yrotation
			JOINT rhumerus
			{
				OFFSET -17.380600 4.958300 0.000000
				CHANNELS 3 Zrotation Xrotation Yrotation
				JOINT rradius
				{
					OFFSET 0.000000 -27.561300 0.000000
					CHANNELS 3 Zrotation Xrotation Yrotation
					JOINT rhand
					{
						OFFSET 0.000000 -26.933000 0.000000
						CHANNELS 3 Zrotation Xrotation Yrotation
						End Site
						{
						    OFFSET 0.000000 -5.000000 0.000000
						}
					}
				}
			}
		}
	}
}
MOTION
Frames:	9
Frame Time:	0.0333333
-204.552 89.203 0.0693054 1.06195 0.549639 90.3094 0.0390836 -0.0862444 2.30466 1.36277 9.9531 12.9973 0.746203 4.12629 0.00252192 -3.18092e-016 -5 3.1927e-015 -1.25995 3.10282 -2.9255 -1.37788 10.0395 -11.7959 0.267695 3.26564 -0.15445 -3.45882e-015 -5 -3.1927e-015 -2.21671 -0.849731 -0.753499 -0.412232 7.16173 -5.39854 -1.98785e-016 -9.42674e-016 -1.49089e-016 77.3925 -0.544343 68.515 4.29827 -0.217785 -58.9607 1.58974 -7.12933 -9.75736 -1.98785e-016 -9.42674e-016 -1.49089e-016 -70.3798 11.3452 -39.7146 0.289125 -11.1255 24.2082 -1.6266 -4.17447 9.79916 
-204.57 89.2034 0.122516 1.19857 0.506711 90.3762 0.153762 -0.0253258 2.41028 1.32699 10.0476 12.8244 0.674819 4.0717 0.00192 -1.78906e-015 -5 -0 -1.18069 3.25173 -2.90901 -1.36326 10.0049 -11.8833 0.150831 3.28571 -0.155756 -2.0475e-015 -5 1.59635e-015 -2.23728 -0.80031 -0.763709 -0.475723 7.31504 -5.47235 -4.36434e-034 -5.03174e-016 -4.96962e-017 77.4722 -0.688032 68.4111 4.35479 -0.0829652 -59.0101 1.63045 -7.17104 -9.74861 -4.36434e-034 -5.03174e-016 -4.96962e-017 -70.3343 11.3829 -39.5657 0.397987 -11.2183 23.9427 -1.68543 -3.44175 9.80417 
-204.648 89.208 0.14808 1.17291 0.483603 90.3379 0.184428 -0.0847464 2.4225 1.33089 9.9982 12.8562 0.75309 4.12536 0.00195572 -1.11323e-015 -5 3.1927e-015 -1.14353 3.11851 -2.86375 -1.36244 10.1007 -11.9001 0.196941 3.29075 -0.155705 7.35485e-016 -5 1.59635e-015 -2.22229 -0.631099 -0.751557 -0.822436 7.09959 -5.75963 -1.98785e-016 -7.68738e-016 -4.96962e-017 77.5874 -0.835588 68.7305 4.41354 0.000124933 -59.2212 1.68893 -7.15353 -9.74903 -1.98785e-016 -7.68738e-016 -4.96962e-017 -70.2739 11.3153 -39.6851 0.535898 -11.2814 24.1689 -1.68209 -4.63437 9.78797 
-204.718 89.2133 0.16346 1.18471 0.53282 90.423 0.127498 -0.165744 2.34005 1.38457 10.0978 12.8506 0.796049 4.16774 0.00205723 1.19271e-015 -5 -0 -1.18314 3.06628 -2.87973 -1.35236 10.1556 -11.9628 0.215933 3.30254 -0.155559 1.31192e-015 -5 4.78906e-015 -2.35059 -0.381013 -0.799111 -0.810272 7.26575 -5.86566 0 8.8366e-016 -0 77.5388 -0.893207 68.7901 4.33736 -0.239629 -59.1493 1.50381 -7.19651 -9.77008 0 8.8366e-016 -0 -70.1916 11.3024 -39.9605 0.562344 -11.247 24.6355 -1.57618 -4.73945 9.79575 
-204.782 89.2135 0.199107 1.12879 0.523432 90.4856 0.132641 -0.294472 2.28672 1.44194 10.1267 12.8711 0.659613 4.22074 0.00221653 1.63011e-015 -5 -6.38541e-015 -1.11272 2.92443 -2.80917 -1.38333 10.2611 -12.1016 0.191455 3.29061 -0.155323 -2.02759e-015 -5 -1.59635e-015 -2.42011 -0.472778 -0.807424 -0.489454 7.55903 -5.65082 -3.97569e-016 5.04727e-016 -0 77.6426 -0.919822 68.5232 4.20495 -0.0710823 -58.7356 1.8515 -6.65293 -9.73825 -3.97569e-016 5.04727e-016 -0 -70.0687 11.4437 -39.9058 0.563623 -11.3048 24.7024 -1.44645 -4.85878 9.80579 
-204.838 89.2238 0.246218 1.05747 0.50668 90.6535 0.200304 -0.422204 2.29888 1.43061 10.1172 12.6218 0.713038 4.28653 0.0024256 4.095e-015 -5 -3.1927e-015 -1.05568 2.83422 -2.78775 -1.34902 10.2742 -12.3199 0.227378 3.33525 -0.155021 -4.47266e-016 -5 -0 -2.57609 -0.447918 -0.873431 -0.102014 7.6981 -5.32513 3.97569e-016 -1.44429e-016 9.93923e-017 77.8197 -1.0403 68.4604 4.09127 0.000127308 -58.5702 2.00112 -6.38919 -9.72605 3.97569e-016 -1.44429e-016 9.93923e-017 -69.8867 11.5375 -40.0774 0.512038 -11.2784 24.6838 -1.26129 -4.95274 9.82112 
-204.885 89.2266 0.278091 1.07163 0.5009 90.7254 0.233287 -0.444636 2.30875 1.4307 10.1079 12.5237 0.645486 4.32022 0.00267625 -7.15661e-016 -5 3.1927e-015 -1.03696 2.85664 -2.80985 -1.31169 10.2157 -12.3891 0.130997 3.3595 -0.154649 4.96962e-016 -5 -0 -2.56316 -0.226054 -0.898041 0.0583864 7.45132 -5.34151 -0 -1.84808e-016 -0 77.7979 -1.0935 68.6752 4.11234 -0.0549707 -58.6678 2.08717 -6.4099 -9.71779 -0 -1.84808e-016 -0 -69.8993 11.4863 -40.3352 0.521061 -11.1616 24.809 -1.20835 -4.83968 9.82701 
-204.95 89.2421 0.294011 1.07068 0.514057 90.6777 0.210777 -0.428934 2.27545 1.45711 9.98908 12.5894 0.666609 4.4528 0.0029609 2.06732e-015 -5 3.1927e-015 -1.08097 2.90017 -2.85772 -1.24328 10.0193 -12.2766 -0.0268034 3.45323 -0.154234 -1.86854e-015 -5 -3.1927e-015 -2.40823 -0.148275 -0.841635 -0.0793241 7.33206 -5.80471 0 3.09825e-016 -0 77.6438 -1.17766 68.7679 4.16063 -0.0708042 -58.8098 2.1351 -6.48609 -9.71165 0 3.09825e-016 -0 -70.0633 11.4831 -40.3767 0.464826 -11.062 24.8156 -1.26522 -4.79515 9.82251 
-204.997 89.2425 0.313616 1.10936 0.522257 90.6229 0.193952 -0.437287 2.24815 1.48002 10.0255 12.6763 0.718239 4.44299 0.00327057 -1.70958e-015 -5 3.1927e-015 -1.10487 2.73447 -2.88719 -1.22317 10.373 -12.1848 -0.0832502 3.31209 -0.153736 -2.14689e-015 -5 1.59635e-015 -2.38781 -0.00205824 -0.830787 0.0865622 7.25542 -5.78793 3.97569e-016 -1.57552e-015 -2.48481e-017 77.6496 -1.17085 68.7655 4.09007 -0.0575961 -58.7689 2.18058 -6.39247 -9.71081 3.97569e-016 -1.57552e-015 -2.48481e-017 -70.0634 11.4289 -40.3406 0.490424 -11.038 24.394 -1.408 -4.65915 9.81143 
